<svg width="2074" height="500" viewBox="0 0 2074 500" fill="none" xmlns="http://www.w3.org/2000/svg">
<g clip-path="url(#clip0_41_59)">
<circle cx="250" cy="250" r="250" fill="#2CDF80"/>
<path d="M249.5 113.223L283.914 206.224L286.307 212.693L292.776 215.086L385.777 249.5L292.776 283.914L286.307 286.307L283.914 292.776L249.5 385.777L215.086 292.776L212.693 286.307L206.224 283.914L113.223 249.5L206.224 215.086L212.693 212.693L215.086 206.224L249.5 113.223Z" stroke="white" stroke-width="30"/>
</g>
<path d="M822.398 144.545V354H784.148L693.023 222.17H691.489V354H647.205V144.545H686.068L776.477 276.273H778.318V144.545H822.398ZM866.186 354V144.545H1004.87V181.057H910.47V230.966H995.663V267.477H910.47V354H866.186ZM1033.88 181.057V144.545H1205.9V181.057H1141.77V354H1098V181.057H1033.88ZM1416.67 217.875H1371.88C1371.06 212.08 1369.39 206.932 1366.87 202.432C1364.34 197.864 1361.11 193.977 1357.15 190.773C1353.2 187.568 1348.63 185.114 1343.45 183.409C1338.33 181.705 1332.78 180.852 1326.78 180.852C1315.94 180.852 1306.49 183.545 1298.45 188.932C1290.4 194.25 1284.16 202.023 1279.73 212.25C1275.3 222.409 1273.08 234.75 1273.08 249.273C1273.08 264.205 1275.3 276.75 1279.73 286.909C1284.23 297.068 1290.5 304.739 1298.55 309.92C1306.59 315.102 1315.9 317.693 1326.47 317.693C1332.4 317.693 1337.89 316.909 1342.94 315.341C1348.05 313.773 1352.58 311.489 1356.54 308.489C1360.49 305.42 1363.76 301.705 1366.36 297.341C1369.01 292.977 1370.86 288 1371.88 282.409L1416.67 282.614C1415.51 292.227 1412.62 301.5 1407.98 310.432C1403.41 319.295 1397.24 327.239 1389.47 334.261C1381.76 341.216 1372.56 346.739 1361.86 350.83C1351.22 354.852 1339.19 356.864 1325.75 356.864C1307.07 356.864 1290.37 352.636 1275.64 344.182C1260.98 335.727 1249.39 323.489 1240.87 307.466C1232.41 291.443 1228.19 272.045 1228.19 249.273C1228.19 226.432 1232.48 207 1241.07 190.977C1249.66 174.955 1261.32 162.75 1276.05 154.364C1290.78 145.909 1307.34 141.682 1325.75 141.682C1337.89 141.682 1349.14 143.386 1359.5 146.795C1369.94 150.205 1379.17 155.182 1387.22 161.727C1395.26 168.205 1401.81 176.148 1406.86 185.557C1411.97 194.966 1415.24 205.739 1416.67 217.875ZM1526.4 357.068C1510.24 357.068 1496.33 353.795 1484.67 347.25C1473.08 340.636 1464.15 331.295 1457.88 319.227C1451.61 307.091 1448.47 292.739 1448.47 276.17C1448.47 260.011 1451.61 245.83 1457.88 233.625C1464.15 221.42 1472.98 211.909 1484.37 205.091C1495.82 198.273 1509.25 194.864 1524.66 194.864C1535.03 194.864 1544.67 196.534 1553.61 199.875C1562.61 203.148 1570.45 208.091 1577.13 214.705C1583.88 221.318 1589.13 229.636 1592.88 239.659C1596.63 249.614 1598.5 261.273 1598.5 274.636V286.602H1465.86V259.602H1557.49C1557.49 253.33 1556.13 247.773 1553.4 242.932C1550.67 238.091 1546.89 234.307 1542.05 231.58C1537.28 228.784 1531.72 227.386 1525.38 227.386C1518.77 227.386 1512.9 228.92 1507.79 231.989C1502.74 234.989 1498.79 239.045 1495.92 244.159C1493.06 249.205 1491.6 254.83 1491.53 261.034V286.705C1491.53 294.477 1492.96 301.193 1495.82 306.852C1498.75 312.511 1502.88 316.875 1508.2 319.943C1513.52 323.011 1519.82 324.545 1527.12 324.545C1531.96 324.545 1536.39 323.864 1540.41 322.5C1544.44 321.136 1547.88 319.091 1550.74 316.364C1553.61 313.636 1555.79 310.295 1557.29 306.341L1597.58 309C1595.54 318.682 1591.35 327.136 1585 334.364C1578.73 341.523 1570.62 347.114 1560.66 351.136C1550.78 355.091 1539.36 357.068 1526.4 357.068ZM1634.14 354V196.909H1676.38V224.318H1678.01C1680.88 214.568 1685.68 207.205 1692.43 202.227C1699.18 197.182 1706.95 194.659 1715.75 194.659C1717.93 194.659 1720.28 194.795 1722.81 195.068C1725.33 195.341 1727.55 195.716 1729.45 196.193V234.852C1727.41 234.239 1724.58 233.693 1720.97 233.216C1717.35 232.739 1714.05 232.5 1711.05 232.5C1704.64 232.5 1698.91 233.898 1693.86 236.693C1688.89 239.42 1684.93 243.239 1682 248.148C1679.14 253.057 1677.7 258.716 1677.7 265.125V354H1634.14ZM1850.61 196.909V229.636H1756.01V196.909H1850.61ZM1777.49 159.273H1821.06V305.727C1821.06 309.75 1821.67 312.886 1822.9 315.136C1824.12 317.318 1825.83 318.852 1828.01 319.739C1830.26 320.625 1832.85 321.068 1835.78 321.068C1837.83 321.068 1839.87 320.898 1841.92 320.557C1843.96 320.148 1845.53 319.841 1846.62 319.636L1853.48 352.057C1851.29 352.739 1848.23 353.523 1844.27 354.409C1840.32 355.364 1835.51 355.943 1829.85 356.148C1819.35 356.557 1810.15 355.159 1802.24 351.955C1794.4 348.75 1788.29 343.773 1783.93 337.023C1779.57 330.273 1777.42 321.75 1777.49 311.455V159.273ZM2014.93 241.705L1975.04 244.159C1974.36 240.75 1972.89 237.682 1970.64 234.955C1968.39 232.159 1965.43 229.943 1961.75 228.307C1958.13 226.602 1953.8 225.75 1948.76 225.75C1942.01 225.75 1936.31 227.182 1931.68 230.045C1927.04 232.841 1924.72 236.591 1924.72 241.295C1924.72 245.045 1926.22 248.216 1929.22 250.807C1932.22 253.398 1937.37 255.477 1944.67 257.045L1973.1 262.773C1988.37 265.909 1999.76 270.955 2007.26 277.909C2014.76 284.864 2018.51 294 2018.51 305.318C2018.51 315.614 2015.47 324.648 2009.41 332.42C2003.41 340.193 1995.16 346.261 1984.66 350.625C1974.22 354.92 1962.19 357.068 1948.55 357.068C1927.76 357.068 1911.19 352.739 1898.85 344.08C1886.58 335.352 1879.38 323.489 1877.27 308.489L1920.12 306.239C1921.42 312.58 1924.55 317.42 1929.53 320.761C1934.51 324.034 1940.88 325.67 1948.66 325.67C1956.29 325.67 1962.43 324.205 1967.06 321.273C1971.77 318.273 1974.16 314.42 1974.22 309.716C1974.16 305.761 1972.49 302.523 1969.21 300C1965.94 297.409 1960.89 295.432 1954.08 294.068L1926.87 288.648C1911.53 285.58 1900.11 280.261 1892.61 272.693C1885.18 265.125 1881.46 255.477 1881.46 243.75C1881.46 233.659 1884.19 224.966 1889.64 217.67C1895.17 210.375 1902.91 204.75 1912.86 200.795C1922.88 196.841 1934.61 194.864 1948.04 194.864C1967.88 194.864 1983.5 199.057 1994.88 207.443C2006.34 215.83 2013.02 227.25 2014.93 241.705Z" fill="white"/>
<defs>
<clipPath id="clip0_41_59">
<rect width="500" height="500" fill="white"/>
</clipPath>
</defs>
</svg>
